<svg width="1440" height="237" viewBox="0 0 1440 237" fill="none" xmlns="http://www.w3.org/2000/svg">
<path d="M1368.43 574.71C1616.21 454.727 1535.49 230.258 1447.7 174.266C1327.24 89.2778 1261.52 -22.2201 1132.41 75.1177C1005.08 171.104 1018.02 284.484 671.906 100.118C518.906 18.6178 426.398 -15.5639 250.906 6.61776C40.5374 33.2078 -259.484 167.275 -270.815 260.753C-295.78 466.724 -102.036 574.71 65.233 574.71C212.197 574.71 261.836 470.725 467.177 385.737C672.518 300.748 1065.05 721.616 1368.43 574.71Z" fill="#CE395F" fill-opacity="0.15"/>
<path d="M1764.43 596.71C2012.21 476.727 1931.49 252.258 1843.7 196.266C1723.24 111.278 1657.52 -0.2201 1528.41 97.1177C1401.08 193.104 1414.02 306.484 1067.91 122.118C914.906 40.6178 822.397 6.43608 646.906 28.6178C436.537 55.2078 136.516 189.275 125.185 282.753C100.22 488.724 293.964 596.71 461.233 596.71C608.197 596.71 657.836 492.725 863.177 407.737C1068.52 322.748 1461.05 743.616 1764.43 596.71Z" fill="#CE395F" fill-opacity="0.15"/>
</svg>
