<svg width="1440" height="147" viewBox="0 0 1440 147" fill="none" preserveAspectRatio="xMidYMid meet" xmlns="http://www.w3.org/2000/svg">
<mask id="mask0_290_787" style="mask-type:alpha" maskUnits="userSpaceOnUse" x="0" y="0" width="1440" height="147">
<rect width="1440" height="147" fill="#D9D9D9"/>
</mask>
<g mask="url(#mask0_290_787)">
<path d="M227.563 412.667C29.063 292.667 93.7296 68.1675 164.063 12.1675C260.563 -72.8324 336.127 -60.6838 439.563 36.6675C541.563 132.667 590.063 -3.33234 895.063 -97.3323C1200.06 -191.332 1516.91 -62.3142 1533.56 109.168C1553.56 315.168 1461.5 428 1327.5 428C1209.77 428 1105.5 418.5 941 333.5C776.5 248.5 470.604 559.594 227.563 412.667Z" fill="#CE395F" fill-opacity="0.45"/>
<path d="M37.563 364.667C-160.937 244.667 -96.2704 20.1675 -25.9371 -35.8325C70.563 -120.832 178.064 -178.351 281.5 -81C383.5 14.9999 400.063 -51.3323 705.063 -145.332C1010.06 -239.332 1326.91 -110.314 1343.56 61.1677C1363.56 267.168 1215.56 364.667 1081.56 364.667C963.829 364.667 924.063 260.668 759.563 175.668C595.063 90.6675 280.604 511.594 37.563 364.667Z" fill="#CE395F" fill-opacity="0.45"/>
</g>
</svg>
