<?xml version="1.0" encoding="UTF-8" standalone="no"?>
<!-- Uploaded to: SVG Repo, www.svgrepo.com, Generator: SVG Repo Mixer Tools -->
<svg width="800px" height="800px" viewBox="0 0 64 64" version="1.1" xmlns="http://www.w3.org/2000/svg" xmlns:xlink="http://www.w3.org/1999/xlink">
    
    <title>spe-bubble-female</title>
    <desc>Created with Sketch.</desc>
    <defs>

</defs>
    <g id="64px-Glyph" stroke="none" stroke-width="1" fill="none" fill-rule="evenodd">
        <g id="spe-bubble-female" fill="#FFFFFF">
            <path d="M22.248,47.6572 L28.758,46.0302 C28.916,45.9902 29.084,45.9902 29.242,46.0302 L35.753,47.6572 L34.214,38.5982 C33.844,38.8112 33.541,39.1372 33.368,39.5452 C31.833,43.1672 29.688,45.9152 29.009,46.0002 C28.313,45.9132 26.169,43.1642 24.633,39.5442 C24.474,39.1682 24.198,38.8692 23.867,38.6572 L22.248,47.6572 Z" id="Fill-9">

</path>
            <path d="M53.9805,51.8037 C52.1075,42.4367 45.7965,39.6687 36.2165,38.4397 L37.9855,48.8297 C38.0425,49.1627 37.9285,49.5027 37.6805,49.7327 C37.4325,49.9627 37.0835,50.0527 36.7575,49.9707 L28.9995,48.0307 L21.2425,49.9707 C21.1625,49.9907 21.0815,49.9997 20.9995,49.9997 C20.7495,49.9997 20.5065,49.9067 20.3195,49.7327 C20.0715,49.5027 19.9565,49.1627 20.0145,48.8287 L21.8765,38.4277 C12.2435,39.6497 5.8955,42.4057 4.0195,51.8047 C4.0065,51.8687 3.9995,51.9337 3.9995,51.9997 C3.9995,54.7387 7.3005,56.3937 13.8125,56.9207 C16.5555,59.7697 26.0495,59.9997 28.9995,59.9997 C31.9505,59.9997 41.4445,59.7697 44.1875,56.9207 C50.6995,56.3937 53.9995,54.7387 53.9995,51.9997 C53.9995,51.9337 53.9935,51.8687 53.9805,51.8037" id="Fill-11">

</path>
            <path d="M34.498,31.5996 C34.032,31.8676 33.516,31.9996 33,31.9996 C32.376,31.9996 31.754,31.8056 31.23,31.4216 C30.271,30.7206 29.816,29.5206 30.069,28.3606 L31.02,23.9996 L29,23.9996 C28.621,23.9996 28.275,23.7866 28.106,23.4476 L27,21.2366 L25.894,23.4476 C25.725,23.7866 25.379,23.9996 25,23.9996 L18,23.9996 L18,25.9996 C18,28.0766 19.278,29.6006 21.195,29.9326 C22.563,35.2876 25.187,37.9996 29,37.9996 C32.714,37.9996 35.295,35.4186 36.692,30.3356 L34.498,31.5996 Z" id="Fill-13">

</path>
            <path d="M42.8818,32.4229 C42.2798,32.0019 41.3688,31.3569 40.7328,29.7539 C40.1378,30.5119 39.3658,31.1229 38.4388,31.5119 C37.5608,34.3839 36.3418,36.3189 34.9938,37.6139 C39.6848,37.0309 43.9998,35.7969 43.9998,33.9999 C43.9998,33.2029 43.4068,32.7889 42.8818,32.4229" id="Fill-15">

</path>
            <path d="M19.5684,31.5361 C18.6374,31.1551 17.8624,30.5451 17.2664,29.7841 C16.6224,31.4101 15.6974,32.0581 15.0864,32.4791 C14.6024,32.8131 14.0004,33.2291 14.0004,34.0001 C14.0004,35.7341 18.2774,36.9971 22.9914,37.6011 C21.6514,36.3091 20.4414,34.3861 19.5684,31.5361" id="Fill-17">

</path>
            <path d="M33,30 C32.792,30 32.585,29.935 32.41,29.807 C32.09,29.574 31.938,29.174 32.023,28.787 L33.194,23.414 C31.13,21.309 30,18.697 30,16 C30,9.383 36.729,4 45,4 C53.271,4 60,9.383 60,16 C60,22.617 53.271,28 45,28 C42.782,28 40.656,27.626 38.672,26.887 L33.499,29.867 C33.344,29.956 33.172,30 33,30" id="Fill-19">

</path>
            <path d="M28,16 C28,14.615 28.254,13.279 28.711,12.014 C22.512,12.166 18.531,17.092 18.049,22 L24.382,22 L26.106,18.553 C26.445,17.875 27.555,17.875 27.894,18.553 L29.116,20.996 C28.389,19.416 28,17.727 28,16" id="Fill-21">

</path>
        </g>
    </g>
</svg>