<?xml version="1.0" encoding="utf-8"?><!-- Uploaded to: SVG Repo, www.svgrepo.com, Generator: SVG Repo Mixer Tools -->
<svg width="800px" height="800px" viewBox="0 0 24 24" id="Layer_1" data-name="Layer 1" xmlns="http://www.w3.org/2000/svg"><defs><style>.cls-1{fill:none;stroke:#FFFFFF;stroke-miterlimit:10;stroke-width:1.91px;}</style></defs><path class="cls-1" d="M6.17,10.86h0A8.16,8.16,0,0,1,14.33,19h0"/><rect class="cls-1" x="17.73" y="2.48" width="4.77" height="7.64" rx="2.39"/><rect class="cls-1" x="12.95" y="1.52" width="4.77" height="8.59" rx="2.39"/><path class="cls-1" d="M11.56,9.89A2.37,2.37,0,0,0,13,7.73V3.91a2.39,2.39,0,1,0-4.77,0V6.19"/><path class="cls-1" d="M3.41,7.79V3.91a2.39,2.39,0,1,1,4.77,0V6.19"/><path class="cls-1" d="M6.27,23.48V21.57l-.75-.64c-2.57-2.58-4-5.12-4-8.77h0A6,6,0,0,1,3.25,7.94h0A6,6,0,0,1,7.47,6.19h2.2A2.33,2.33,0,0,1,12,8.52h0a2.33,2.33,0,0,1-2.33,2.34H6.17"/><path class="cls-1" d="M17.73,23.48V21.57l.75-.64c2.57-2.58,4-5.12,4-8.77h0V7.36"/></svg>