<?xml version="1.0" encoding="iso-8859-1"?>
<!-- Uploaded to: SVG Repo, www.svgrepo.com, Generator: SVG Repo Mixer Tools -->
<svg height="800px" width="800px" version="1.1" id="Capa_1" xmlns="http://www.w3.org/2000/svg" xmlns:xlink="http://www.w3.org/1999/xlink" 
	 viewBox="0 0 55.784 55.784" xml:space="preserve">
<g>
	<g>
		<path style="fill:#FFFFFF;" d="M0.945,46.099c-0.803,1.371-0.76,3.062,0.617,4.079c1.176,0.871,3.274,0.756,4.08-0.616
			c1.664-2.84,4.683-4.975,4.683-4.975s-1.113-2.449-1.639-7.041C8.686,37.546,2.839,42.87,0.945,46.099z"/>
		<path style="fill:#FFFFFF;" d="M13.596,13.443c-0.43-0.325-0.921-0.58-1.439-0.749c-0.35-0.143-0.693-0.212-1.023-0.222
			c-0.551-0.062-1.102-0.035-1.606,0.101c-1.334,0.357-2.233,1.174-2.744,2.212c-2.471,2.885-4.534,6.02-6.387,9.333
			c-1.837,3.285,3.202,6.227,5.038,2.942c0.574-1.026,1.166-2.04,1.785-3.036c0.532,3.592,1.063,7.185,1.595,10.775
			c0.109,0.728,0.454,1.354,0.939,1.862c0.774,5.11,2.194,10.158,4.433,14.795c1.635,3.388,6.665,0.427,5.038-2.943
			c-1.674-3.469-2.792-7.305-3.479-11.175c1.516-1.056,2.064-2.953,1.779-4.874c-0.525-3.545-1.051-7.092-1.576-10.639
			c1.595,1.15,3.132,2.384,4.616,3.704c2.8,2.494,6.941-1.618,4.123-4.123C21.271,18.366,17.607,15.636,13.596,13.443z"/>
		<circle style="fill:#FFFFFF;" cx="10.694" cy="6.1" r="5.082"/>
		<path style="fill:#FFFFFF;" d="M46.97,36.607c0.532-3.592,1.063-7.184,1.597-10.774c0.618,0.995,1.211,2.009,1.785,3.036
			c1.835,3.285,6.874,0.342,5.036-2.941c-1.854-3.314-3.915-6.449-6.388-9.336c-0.512-1.039-1.41-1.853-2.742-2.209
			c-1.155-0.31-2.542-0.071-3.643,0.583c-4.461-1.853-9.144-3.013-13.914-3.742c-3.728-0.568-4.249,5.242-0.543,5.808
			c4.194,0.641,8.249,1.698,12.17,3.297c-0.689,4.649-1.377,9.296-2.066,13.947c-0.285,1.922,0.265,3.817,1.779,4.873
			c-0.688,3.87-1.808,7.708-3.479,11.176c-1.628,3.371,3.402,6.332,5.036,2.944c2.238-4.638,3.658-9.687,4.434-14.796
			C46.517,37.962,46.864,37.333,46.97,36.607z"/>
		<path style="fill:#FFFFFF;" d="M47.099,39.356c-0.526,4.591-1.64,7.036-1.64,7.036s3.021,2.137,4.685,4.979
			c0.806,1.371,2.901,1.484,4.078,0.617c1.378-1.02,1.422-2.709,0.618-4.082C52.948,44.677,47.099,39.356,47.099,39.356z"/>
		<circle style="fill:#FFFFFF;" cx="45.091" cy="7.906" r="5.083"/>
	</g>
</g>
</svg>